# xmcd CD database file
#
# Track frame offsets:
#	150
#	1916
#	24980
#	54197
#	72623
#	97057
#	116099
#	132011
#	161867
#	188219
#	202714
#	209431
#
# Disc length: 2869 seconds
#
# Revision: 0
# Processed by: cddbd v1.5.1PL2 Copyright (c) Steve Scherf et al.
# Submitted via: Feurio! 1.68 - http://www.feurio.com
#
DISCID=a20b330c
DTITLE=Eelco Gelling Band - On The Road
DYEAR=1900
DGENRE=Blues
TTITLE0=Intro
TTITLE1=Stingin' Eyes
TTITLE2=Deep Elem Blues
TTITLE3=Somebody Knows
TTITLE4=Travelin' Man
TTITLE5=Down This Highway Side
TTITLE6=Got To The Moving
TTITLE7=After A While
TTITLE8=You Talk Too Much
TTITLE9=Gasoline Blues
TTITLE10=Outro # 1
TTITLE11=Outro # 2
EXTD=
EXTT0=
EXTT1=
EXTT2=
EXTT3=
EXTT4=
EXTT5=
EXTT6=
EXTT7=
EXTT8=
EXTT9=
EXTT10=
EXTT11=
PLAYORDER=
